# xmcd CD database file
#
# Track frame offsets:
#	150
#	31130
#	49842
#	66455
#	87207
#	100567
#	116307
#	133095
#	142842
#	156217
#
# Disc length: 2260 seconds
#
# Revision: 3
# Processed by: cddbd v1.5.2PL0 Copyright (c) Steve Scherf et al.
# Submitted via: CDex 1.70beta2
#
DISCID=7c08d20a
DTITLE=Mansfield/Turner - Blues With a Feelin'
DYEAR=1991
DGENRE=Blues
TTITLE0=Million Dollar Feelin'
TTITLE1=Stand by Me
TTITLE2=People Get Ready
TTITLE3=Jesus Comin' Soon
TTITLE4=Don't Sell Your Soul for Money
TTITLE5=Blues With a Feelin'
TTITLE6=Everyday Will Be Sunday
TTITLE7=I'm Just Your Fool
TTITLE8=Nobody's Fault But Mine
TTITLE9=At the Table of the Lord
EXTD=YEAR: 1991
EXTT0=
EXTT1=
EXTT2=
EXTT3=
EXTT4=
EXTT5=
EXTT6=
EXTT7=
EXTT8=
EXTT9=
PLAYORDER=
